<svg xmlns="http://www.w3.org/2000/svg" xmlns:xlink="http://www.w3.org/1999/xlink" width="72" height="64" viewBox="0 0 72 64">
  <defs>
    <filter id="联合_61" x="-11" y="-1.118" width="90" height="79.417" filterUnits="userSpaceOnUse">
      <feOffset dx="-2" dy="10" input="SourceAlpha"/>
      <feGaussianBlur stdDeviation="5" result="blur"/>
      <feFlood flood-opacity="0.161"/>
      <feComposite operator="in" in2="blur"/>
      <feComposite in="SourceGraphic"/>
    </filter>
    <clipPath id="clip-画板_1">
      <rect width="72" height="64"/>
    </clipPath>
  </defs>
  <g id="画板_1" data-name="画板 – 1" clip-path="url(#clip-画板_1)">
    <g id="组_1489" data-name="组 1489" transform="translate(-1233.5 -562.5)">
      <g id="组_1482" data-name="组 1482" transform="translate(4.5)">
        <g transform="matrix(1, 0, 0, 1, 1229, 562.5)" filter="url(#联合_61)">
          <g id="联合_61-2" data-name="联合 61" transform="translate(6 3.88)" fill="#fff">
            <path d="M 29.99981117248535 48.91675567626953 C 29.91079139709473 48.91675567626953 29.68992042541504 48.89145660400391 29.56181144714355 48.65713500976563 L 24.69157981872559 39.75952529907227 L 24.54930114746094 39.49959564208984 L 24.25298118591309 39.49959564208984 L 6.000300884246826 39.49959564208984 C 2.96742057800293 39.49959564208984 0.5000006556510925 37.03257751464844 0.5000006556510925 34.00020599365234 L 0.5000006556510925 6.000296115875244 C 0.5000006556510925 2.96742582321167 2.96742057800293 0.5000059604644775 6.000300884246826 0.5000059604644775 L 54 0.5000059604644775 C 57.03287887573242 0.5000059604644775 59.50030136108398 2.96742582321167 59.50030136108398 6.000296115875244 L 59.50030136108398 34.00020599365234 C 59.50030136108398 37.03257751464844 57.03287887573242 39.49959564208984 54 39.49959564208984 L 35.74674987792969 39.49959564208984 L 35.45040893554688 39.49959564208984 L 35.30813980102539 39.75954437255859 L 30.43859100341797 48.65694427490234 C 30.31010055541992 48.89141464233398 30.08893013000488 48.91675567626953 29.99981117248535 48.91675567626953 Z" stroke="none"/>
            <path d="M 30.00015258789063 48.41660308837891 L 35.15407943725586 38.99959564208984 L 54 38.99959564208984 C 56.75717163085938 38.99959564208984 59.00030136108398 36.75687408447266 59.00030136108398 34.00020599365234 L 59.00030136108398 6.000296115875244 C 59.00030136108398 3.243125915527344 56.75717163085938 1.000005960464478 54 1.000005960464478 L 6.000300884246826 1.000005960464478 C 3.243130683898926 1.000005960464478 1.000000715255737 3.243125915527344 1.000000715255737 6.000296115875244 L 1.000000715255737 34.00020599365234 C 1.000000715255737 36.75687408447266 3.243130683898926 38.99959564208984 6.000300884246826 38.99959564208984 L 24.84562110900879 38.99959564208984 L 30.00015258789063 48.41660308837891 M 29.99981117248535 49.41675567626953 C 29.65612983703613 49.41675567626953 29.31255149841309 49.24350738525391 29.12310028076172 48.89699554443359 L 24.25298118591309 39.99959564208984 L 6.000300884246826 39.99959564208984 C 2.686500787734985 39.99959564208984 6.805419729971618e-07 37.31399536132813 6.805419729971618e-07 34.00020599365234 L 6.805419729971618e-07 6.000296115875244 C 6.805419729971618e-07 2.686506032943726 2.686500787734985 5.930786301178159e-06 6.000300884246826 5.930786301178159e-06 L 54 5.930786301178159e-06 C 57.31380081176758 5.930786301178159e-06 60.00030136108398 2.686506032943726 60.00030136108398 6.000296115875244 L 60.00030136108398 34.00020599365234 C 60.00030136108398 37.31399536132813 57.31380081176758 39.99959564208984 54 39.99959564208984 L 35.74674987792969 39.99959564208984 L 30.87720108032227 48.89699554443359 C 30.68729972839355 49.24350738525391 30.3435001373291 49.41675567626953 29.99981117248535 49.41675567626953 Z" stroke="none" fill="#e9edf0"/>
          </g>
        </g>
      </g>
    </g>
  </g>
</svg>
