<svg xmlns="http://www.w3.org/2000/svg" xmlns:xlink="http://www.w3.org/1999/xlink" width="20" height="20" viewBox="0 0 20 20">
  <defs>
    <linearGradient id="linear-gradient" y1="0.5" x2="1" y2="0.5" gradientUnits="objectBoundingBox">
      <stop offset="0" stop-color="#63667c"/>
      <stop offset="1" stop-color="#383e4c"/>
    </linearGradient>
  </defs>
  <g id="系统管理" transform="translate(-902.96 -201.96)">
    <rect id="矩形_281" data-name="矩形 281" width="20" height="20" transform="translate(902.96 201.96)" fill="#f6d6db" opacity="0"/>
    <g id="组_118" data-name="组 118" transform="translate(904.245 203.66)">
      <path id="路径_163" data-name="路径 163" d="M16.036,25.183l-4.9,6.988a.83.83,0,0,0,.68,1.306h9.8a.83.83,0,0,0,.68-1.306l-4.9-6.988A.83.83,0,0,0,16.036,25.183Z" transform="translate(-7.8 -16.979)" stroke="rgba(0,0,0,0)" stroke-width="1" opacity="0.3" fill="url(#linear-gradient)"/>
      <rect id="矩形_323" data-name="矩形 323" width="17.467" height="13.1" rx="2" transform="translate(0 0)" fill="url(#linear-gradient)"/>
      <rect id="矩形_324" data-name="矩形 324" width="14.58" height="10.21" rx="1" transform="translate(1.444 1.445)" fill="#fff"/>
      <path id="路径_1983" data-name="路径 1983" d="M6.867,3.017H6.549a.381.381,0,0,1-.357-.278l-.2-.476c-.079-.079-.04-.278.079-.4l.238-.238a.265.265,0,0,0,0-.4l-.4-.4a.265.265,0,0,0-.4,0l-.238.238a.372.372,0,0,1-.437.079l-.476-.2A.381.381,0,0,1,4.088.6V.278A.271.271,0,0,0,3.811,0H3.295a.271.271,0,0,0-.278.278V.6a.381.381,0,0,1-.278.357l-.437.2a.372.372,0,0,1-.437-.079L1.627.834a.265.265,0,0,0-.4,0l-.4.4a.265.265,0,0,0,0,.4l.238.238a.372.372,0,0,1,.079.437l-.2.476A.4.4,0,0,1,.6,3.017H.278A.271.271,0,0,0,0,3.295V3.85a.271.271,0,0,0,.278.278H.6a.381.381,0,0,1,.357.278l.2.476c.079.079.04.278-.079.4l-.238.238a.265.265,0,0,0,0,.4l.4.4a.265.265,0,0,0,.4,0l.238-.238A.372.372,0,0,1,2.3,5.994l.476.2a.381.381,0,0,1,.278.357v.318a.271.271,0,0,0,.278.278H3.89a.271.271,0,0,0,.278-.278V6.549a.381.381,0,0,1,.278-.357l.476-.2a.372.372,0,0,1,.437.079l.238.238a.265.265,0,0,0,.4,0l.4-.4a.265.265,0,0,0,0-.4l-.238-.238a.449.449,0,0,1-.079-.437l.2-.476a.381.381,0,0,1,.357-.278h.318a.271.271,0,0,0,.278-.278V3.295a.424.424,0,0,0-.357-.278Zm-1.905.556A1.406,1.406,0,0,1,3.572,4.962a1.389,1.389,0,0,1,0-2.778A1.406,1.406,0,0,1,4.962,3.572Zm0,0" transform="translate(5.122 2.978)" stroke="rgba(0,0,0,0)" stroke-width="1" fill="url(#linear-gradient)"/>
    </g>
  </g>
</svg>
