<svg xmlns="http://www.w3.org/2000/svg" xmlns:xlink="http://www.w3.org/1999/xlink" width="27.661" height="26.635" viewBox="0 0 27.661 26.635">
  <defs>
    <linearGradient id="linear-gradient" y1="0.5" x2="1" y2="0.5" gradientUnits="objectBoundingBox">
      <stop offset="0" stop-color="#63667c"/>
      <stop offset="1" stop-color="#383e4c"/>
    </linearGradient>
    <filter id="联合_65" x="0" y="3.075" width="27.661" height="23.561" filterUnits="userSpaceOnUse">
      <feOffset dy="3" input="SourceAlpha"/>
      <feGaussianBlur stdDeviation="3" result="blur"/>
      <feFlood flood-color="#383e4c" flood-opacity="0.161"/>
      <feComposite operator="in" in2="blur"/>
      <feComposite in="SourceGraphic"/>
    </filter>
  </defs>
  <g id="组_432" data-name="组 432" transform="translate(-668.084 -377)">
    <rect id="矩形_283" data-name="矩形 283" width="20" height="20" transform="translate(672 377)" fill="#f6d6db" opacity="0"/>
    <g id="组_156" data-name="组 156" transform="translate(673.39 379.21)">
      <path id="路径_177" data-name="路径 177" d="M-53.928,6.018h-6.789a1.009,1.009,0,0,1-.5-.132c-.549-.312-2.059-1.092-2.613-1.377A.959.959,0,0,0-64.27,4.4H-67.7a1.234,1.234,0,0,0-1.23,1.23V16.57a1.567,1.567,0,0,0,1.562,1.562H-54.26A1.562,1.562,0,0,0-52.7,16.57V7.248A1.23,1.23,0,0,0-53.928,6.018Z" transform="translate(69.34 -4.403)" stroke="rgba(0,0,0,0)" stroke-width="1" opacity="0.3" fill="url(#linear-gradient)"/>
      <path id="路径_178" data-name="路径 178" d="M-54.516,10.263H-61.3a1.059,1.059,0,0,1-.524-.139c-.577-.328-2.162-1.146-2.743-1.446a1,1,0,0,0-.463-.112h-3.257a1.645,1.645,0,0,0-1.64,1.64V21.341a1.645,1.645,0,0,0,1.64,1.64h13.768a1.64,1.64,0,0,0,1.64-1.64V11.9A1.64,1.64,0,0,0-54.516,10.263Z" transform="translate(69.924 -6.86)" fill="url(#linear-gradient)"/>
      <path id="路径_179" data-name="路径 179" d="M-53.937,13.291h-6.272a.887.887,0,0,1-.439-.116c-.483-.275-1.811-.96-2.3-1.211a.844.844,0,0,0-.388-.094h-3.322a.782.782,0,0,0-.78.78v9.966a.782.782,0,0,0,.78.78h12.718a.78.78,0,0,0,.78-.78V14.072A.78.78,0,0,0-53.937,13.291Z" transform="translate(68.82 -8.515)" fill="#fff"/>
      <g transform="matrix(1, 0, 0, 1, -5.31, -2.21)" filter="url(#联合_65)">
        <path id="联合_65-2" data-name="联合 65" d="M5834.21-2630.649a.6.6,0,0,1-.6-.6.6.6,0,0,1,.6-.6h4.713a.6.6,0,0,1,.6.6.6.6,0,0,1-.6.6Zm0-2.2a.6.6,0,0,1-.6-.6.6.6,0,0,1,.6-.6h8.461a.6.6,0,0,1,.6.6.6.6,0,0,1-.6.6Zm0-2.162a.6.6,0,0,1-.6-.6.6.6,0,0,1,.6-.6h8.461a.6.6,0,0,1,.6.6.6.6,0,0,1-.6.6Z" transform="translate(-5824.61 2645.28)" fill="url(#linear-gradient)"/>
      </g>
    </g>
  </g>
</svg>
